<mxfile host="app.diagrams.net" modified="2022-09-27T02:46:47.658Z" agent="5.0 (Macintosh; Intel Mac OS X 10_15_7) AppleWebKit/537.36 (KHTML, like Gecko) Chrome/105.0.0.0 Safari/537.36" etag="AHsLPv-jtzoXrENVfk1k" version="20.3.6" type="github">
  <diagram id="1FN0jCADEcaOHwnMj6fC" name="Page-1">
    <mxGraphModel dx="1189" dy="790" grid="1" gridSize="10" guides="1" tooltips="1" connect="1" arrows="1" fold="1" page="1" pageScale="1" pageWidth="850" pageHeight="1100" math="0" shadow="0">
      <root>
        <mxCell id="0" />
        <mxCell id="1" parent="0" />
        <mxCell id="E-Ok-bu4HI9y_HQx3JMv-6" value="" style="endArrow=none;dashed=1;html=1;dashPattern=1 3;strokeWidth=2;rounded=0;" edge="1" parent="1">
          <mxGeometry width="50" height="50" relative="1" as="geometry">
            <mxPoint x="540" y="520" as="sourcePoint" />
            <mxPoint x="450" y="520" as="targetPoint" />
            <Array as="points" />
          </mxGeometry>
        </mxCell>
        <mxCell id="E-Ok-bu4HI9y_HQx3JMv-8" value="&lt;meta charset=&quot;utf-8&quot;&gt;&lt;span style=&quot;color: rgb(0, 0, 0); font-family: Helvetica; font-size: 12px; font-style: normal; font-variant-ligatures: normal; font-variant-caps: normal; font-weight: 400; letter-spacing: normal; orphans: 2; text-align: center; text-indent: 0px; text-transform: none; widows: 2; word-spacing: 0px; -webkit-text-stroke-width: 0px; background-color: rgb(248, 249, 250); text-decoration-thickness: initial; text-decoration-style: initial; text-decoration-color: initial; float: none; display: inline !important;&quot;&gt;Trader Process&lt;/span&gt;" style="shape=process;whiteSpace=wrap;html=1;backgroundOutline=1;" vertex="1" parent="1">
          <mxGeometry x="120" y="490" width="160" height="60" as="geometry" />
        </mxCell>
        <mxCell id="E-Ok-bu4HI9y_HQx3JMv-9" value="&lt;meta charset=&quot;utf-8&quot;&gt;&lt;span style=&quot;color: rgb(0, 0, 0); font-family: Helvetica; font-size: 12px; font-style: normal; font-variant-ligatures: normal; font-variant-caps: normal; font-weight: 400; letter-spacing: normal; orphans: 2; text-align: center; text-indent: 0px; text-transform: none; widows: 2; word-spacing: 0px; -webkit-text-stroke-width: 0px; background-color: rgb(248, 249, 250); text-decoration-thickness: initial; text-decoration-style: initial; text-decoration-color: initial; float: none; display: inline !important;&quot;&gt;Trader Process&lt;/span&gt;" style="shape=process;whiteSpace=wrap;html=1;backgroundOutline=1;" vertex="1" parent="1">
          <mxGeometry x="300" y="490" width="120" height="60" as="geometry" />
        </mxCell>
        <mxCell id="E-Ok-bu4HI9y_HQx3JMv-10" value="&lt;meta charset=&quot;utf-8&quot;&gt;&lt;span style=&quot;color: rgb(0, 0, 0); font-family: Helvetica; font-size: 12px; font-style: normal; font-variant-ligatures: normal; font-variant-caps: normal; font-weight: 400; letter-spacing: normal; orphans: 2; text-align: center; text-indent: 0px; text-transform: none; widows: 2; word-spacing: 0px; -webkit-text-stroke-width: 0px; background-color: rgb(248, 249, 250); text-decoration-thickness: initial; text-decoration-style: initial; text-decoration-color: initial; float: none; display: inline !important;&quot;&gt;Trader Process&lt;/span&gt;" style="shape=process;whiteSpace=wrap;html=1;backgroundOutline=1;" vertex="1" parent="1">
          <mxGeometry x="560" y="490" width="120" height="60" as="geometry" />
        </mxCell>
        <mxCell id="E-Ok-bu4HI9y_HQx3JMv-14" value="Configuration" style="outlineConnect=0;dashed=0;verticalLabelPosition=bottom;verticalAlign=top;align=center;html=1;shape=mxgraph.aws3.postgre_sql_instance;fillColor=#2E73B8;gradientColor=none;" vertex="1" parent="1">
          <mxGeometry x="290" y="340" width="60" height="63" as="geometry" />
        </mxCell>
        <mxCell id="E-Ok-bu4HI9y_HQx3JMv-15" value="fills" style="outlineConnect=0;dashed=0;verticalLabelPosition=bottom;verticalAlign=top;align=center;html=1;shape=mxgraph.aws3.postgre_sql_instance;fillColor=#2E73B8;gradientColor=none;" vertex="1" parent="1">
          <mxGeometry x="440" y="340" width="60" height="63" as="geometry" />
        </mxCell>
        <mxCell id="E-Ok-bu4HI9y_HQx3JMv-16" value="&lt;font style=&quot;font-size: 23px;&quot;&gt;Odoo&lt;/font&gt;" style="outlineConnect=0;dashed=0;verticalLabelPosition=bottom;verticalAlign=top;align=center;html=1;shape=mxgraph.aws3.table;fillColor=#2E73B8;gradientColor=none;" vertex="1" parent="1">
          <mxGeometry x="360" y="190" width="67.5" height="66" as="geometry" />
        </mxCell>
        <mxCell id="E-Ok-bu4HI9y_HQx3JMv-22" value="" style="strokeWidth=2;dashed=0;align=center;fontSize=8;html=1;shape=rect;" vertex="1" parent="1">
          <mxGeometry x="420" y="450" as="geometry" />
        </mxCell>
        <mxCell id="E-Ok-bu4HI9y_HQx3JMv-27" value="" style="strokeWidth=2;dashed=0;align=center;fontSize=8;html=1;shape=rect;" vertex="1" parent="1">
          <mxGeometry x="420" y="450" as="geometry" />
        </mxCell>
        <mxCell id="E-Ok-bu4HI9y_HQx3JMv-36" value="" style="shape=curlyBracket;whiteSpace=wrap;html=1;rounded=1;flipH=1;fontSize=23;rotation=-90;" vertex="1" parent="1">
          <mxGeometry x="368.75" y="240" width="50" height="130" as="geometry" />
        </mxCell>
        <mxCell id="E-Ok-bu4HI9y_HQx3JMv-38" value="R" style="shape=singleArrow;direction=south;whiteSpace=wrap;html=1;fontSize=23;" vertex="1" parent="1">
          <mxGeometry x="290" y="420" width="60" height="60" as="geometry" />
        </mxCell>
        <mxCell id="E-Ok-bu4HI9y_HQx3JMv-40" value="W" style="shape=singleArrow;direction=north;whiteSpace=wrap;html=1;fontSize=23;" vertex="1" parent="1">
          <mxGeometry x="440" y="410" width="60" height="70" as="geometry" />
        </mxCell>
      </root>
    </mxGraphModel>
  </diagram>
</mxfile>
